<?xml version="1.0" encoding="iso-8859-1"?>
<!-- Generator: Adobe Illustrator 23.0.3, SVG Export Plug-In . SVG Version: 6.00 Build 0)  -->
<svg version="1.1" id="Layer_1" xmlns="http://www.w3.org/2000/svg" xmlns:xlink="http://www.w3.org/1999/xlink" x="0px" y="0px"
	 viewBox="0 0 48 48" style="enable-background:new 0 0 48 48;" xml:space="preserve">
<linearGradient id="SVGID_1_" gradientUnits="userSpaceOnUse" x1="20.3748" y1="1365.061" x2="28.7478" y2="1394.946" gradientTransform="matrix(1 0 0 1 0 -1354)">
	<stop  offset="0" style="stop-color:#00B3EE"/>
	<stop  offset="1" style="stop-color:#0082D8"/>
</linearGradient>
<path style="fill:url(#SVGID_1_);" d="M43.125,9H4.875C3.287,9,2,10.287,2,11.875v24.25C2,37.713,3.287,39,4.875,39h38.25
	C44.713,39,46,37.713,46,36.125v-24.25C46,10.287,44.713,9,43.125,9z"/>
<circle style="fill:#CF1928;" cx="17.053" cy="24.053" r="10.053"/>
<linearGradient id="SVGID_2_" gradientUnits="userSpaceOnUse" x1="20" y1="24.0533" x2="40.1066" y2="24.0533">
	<stop  offset="0" style="stop-color:#FEDE00"/>
	<stop  offset="1" style="stop-color:#FFD000"/>
</linearGradient>
<circle style="fill:url(#SVGID_2_);" cx="30.053" cy="24.053" r="10.053"/>
<path style="fill:#D97218;" d="M20,24.053c0,3.072,1.382,5.818,3.553,7.662c2.172-1.844,3.553-4.59,3.553-7.662
	s-1.382-5.818-3.553-7.662C21.382,18.235,20,20.981,20,24.053z"/>
</svg>